<svg xmlns="http://www.w3.org/2000/svg" width="40" height="40" viewBox="0 0 40 40">
	<rect width="40" height="40" rx="6" fill="#2D2D2D"/>
	<defs>
		<linearGradient id="shader" x1="0" y1="0" x2="40" y2="40" gradientUnits="userSpaceOnUse">
			<stop offset="0%" stop-color="#00FFD1"/>
			<stop offset="100%" stop-color="#0077FF"/>
		</linearGradient>
	</defs>
	<rect x="4" y="4" width="32" height="32" rx="4" fill="url(#shader)" opacity="0.8"/>
	<g fill="white">
		<path transform="translate(6.111 23.579) scale(0.00488 -0.00488)" d="M1471 0H1149L1021 333H435L314 0H0L571 1466H884ZM926 580 724 1124 526 580Z"/>
		<path transform="translate(13.333 23.579) scale(0.00488 -0.00488)" d="M831 539V786H1469V202Q1376 112 1199.5 43.5Q1023 -25 842 -25Q612 -25 441.0 71.5Q270 168 184.0 347.5Q98 527 98 738Q98 967 194.0 1145.0Q290 1323 475 1418Q616 1491 826 1491Q1099 1491 1252.5 1376.5Q1406 1262 1450 1060L1156 1005Q1125 1113 1039.5 1175.5Q954 1238 826 1238Q632 1238 517.5 1115.0Q403 992 403 750Q403 489 519.0 358.5Q635 228 823 228Q916 228 1009.5 264.5Q1103 301 1170 353V539Z"/>
		<path transform="translate(21.111 23.579) scale(0.00488 -0.00488)" d="M74 477 362 505Q388 360 467.5 292.0Q547 224 682 224Q825 224 897.5 284.5Q970 345 970 426Q970 478 939.5 514.5Q909 551 833 578Q781 596 596 642Q358 701 262 787Q127 908 127 1082Q127 1194 190.5 1291.5Q254 1389 373.5 1440.0Q493 1491 662 1491Q938 1491 1077.5 1370.0Q1217 1249 1224 1047L928 1034Q909 1147 846.5 1196.5Q784 1246 659 1246Q530 1246 457 1193Q410 1159 410 1102Q410 1050 454 1013Q510 966 726.0 915.0Q942 864 1045.5 809.5Q1149 755 1207.5 660.5Q1266 566 1266 427Q1266 301 1196.0 191.0Q1126 81 998.0 27.5Q870 -26 679 -26Q401 -26 252.0 102.5Q103 231 74 477Z"/>
		<path transform="translate(27.781 23.579) scale(0.00488 -0.00488)" d="M157 0V1454H453V247H1189V0Z"/>
	</g>
</svg>
